PathFileType	4	(X/Y/Z)	s03c0303.trc
DataRate	CameraRate	NumFrames	NumMarkers	Units	OrigDataRate	OrigDataStartFrame	OrigNumFrames
200	200	7	50	mm	200	750	2000
Frame#	Time	racr			lacr			c7			jug			rlel			rdr			llel			ldr			s2			lic			ric			lasi			rasi			rpsi			lpsi			rgt			lgt			rth1			rth2			rth3			rth4			rlfc			rmfc			rsh1			rsh2			rsh3			rsh4			rlmal			rcal			rtoe			rmt5			rmt1			lth1			lth2			lth4			lth3			llfc			lmfc			lsh1			lsh2			lsh3			lsh4			llmal			lcal			ltoe			lmt1			lmt5			SBIKE			LBIKE			RBIKE			
		X1	Y1	Z1	X2	Y2	Z2	X3	Y3	Z3	X4	Y4	Z4	X5	Y5	Z5	X6	Y6	Z6	X7	Y7	Z7	X8	Y8	Z8	X9	Y9	Z9	X10	Y10	Z10	X11	Y11	Z11	X12	Y12	Z12	X13	Y13	Z13	X14	Y14	Z14	X15	Y15	Z15	X16	Y16	Z16	X17	Y17	Z17	X18	Y18	Z18	X19	Y19	Z19	X20	Y20	Z20	X21	Y21	Z21	X22	Y22	Z22	X23	Y23	Z23	X24	Y24	Z24	X25	Y25	Z25	X26	Y26	Z26	X27	Y27	Z27	X28	Y28	Z28	X29	Y29	Z29	X30	Y30	Z30	X31	Y31	Z31	X32	Y32	Z32	X33	Y33	Z33	X34	Y34	Z34	X35	Y35	Z35	X36	Y36	Z36	X37	Y37	Z37	X38	Y38	Z38	X39	Y39	Z39	X40	Y40	Z40	X41	Y41	Z41	X42	Y42	Z42	X43	Y43	Z43	X44	Y44	Z44	X45	Y45	Z45	X46	Y46	Z46	X47	Y47	Z47	X48	Y48	Z48	X49	Y49	Z49	X50	Y50	Z50	
750	3.7500	705.281286	1448.938025	-112.679396	712.578678	1451.792641	-443.412316	652.637189	1540.608612	-285.475452	661.537899	1363.149981	-273.973600	626.718428	1185.967572	7.308728	760.802964	939.412050	-50.785946	636.893527	1186.231843	-538.559908	745.861864	927.311119	-436.103211	130.071817	1247.425060	-274.201649	316.655414	1250.927830	-450.394803	292.361958	1304.646366	-91.118407	330.751511	1186.778890	-397.345835	329.439049	1231.405943	-129.680889	155.755447	1302.793300	-237.032824	163.256888	1292.367932	-318.914690	250.429030	1210.458437	-62.508903	237.190208	1124.212653	-449.967466	368.215867	1113.242553	-27.740181	453.823574	1088.303166	-23.014198	514.760135	1027.700519	-15.427053	471.731054	1114.793521	-42.369714	599.751777	926.710615	-22.531227	609.931992	898.717706	-149.381692	472.350149	821.437687	-10.178665	415.830227	755.342859	-31.647102	333.252730	726.221653	-39.184202	435.928365	733.326035	-55.035267	222.792163	657.128710	-66.726589	149.939945	665.055161	-107.615921	358.306235	436.336038	-128.562962	270.515504	508.833639	-51.143943	291.771420	505.123266	-165.593159	265.863739	976.106549	-462.555557	304.233547	898.186068	-462.948600	339.919950	905.944975	-462.714089	299.806777	810.262160	-448.767563	345.546493	691.736781	-425.547562	347.365204	678.060969	-306.731640	270.199344	538.584470	-451.410448	262.067483	455.196808	-435.310711	210.756481	381.168093	-431.000602	294.066865	445.757792	-414.892274	155.896973	266.193066	-414.676653	86.099975	242.831123	-372.095485	377.009523	131.715561	-359.919053	286.109256	165.888061	-320.087875	258.169109	147.048650	-437.506149	-119.965690	1017.748213	-244.224167	-14.276551	80.186238	-437.570939	-14.120897	80.815016	-37.135786	
751	3.7550	702.781776	1451.568898	-109.668473	713.044748	1454.231695	-438.981332	651.293093	1543.417535	-282.016651	660.589947	1365.752593	-271.221516	625.005003	1187.223032	7.163474	760.829863	940.736660	-51.323436	641.410718	1189.198792	-537.819507	746.127679	926.951292	-435.346251	130.181204	1248.247066	-277.729981	319.329306	1254.048018	-450.479802	289.448525	1306.322607	-92.281874	332.152424	1189.294384	-397.284291	327.789118	1234.246050	-129.772508	155.012121	1303.351652	-239.712423	163.229654	1293.943101	-321.535328	248.953846	1213.000076	-63.713949	238.347541	1126.381381	-450.888652	368.100333	1117.275157	-28.992417	453.892107	1093.040877	-23.918040	515.332225	1032.876773	-16.541706	471.644418	1119.729592	-43.352501	602.696280	933.692709	-24.877160	614.129788	905.904587	-151.396597	477.766674	826.575076	-11.424821	422.459953	759.433535	-32.496319	340.333917	728.703074	-39.735906	442.842593	737.673550	-55.985895	230.548135	657.118213	-67.188861	157.359126	663.718182	-107.545933	369.813371	438.781334	-128.941118	280.740575	509.583086	-51.716451	301.949405	506.406266	-165.768046	265.540559	978.014431	-463.740867	303.057483	899.686100	-464.268772	338.805996	907.141413	-463.940861	297.726615	811.811199	-450.151043	342.496265	692.678926	-426.816200	343.498275	679.271411	-307.469173	265.477905	540.511534	-452.483927	256.655355	457.171313	-436.644475	204.676993	383.614770	-432.063479	288.678809	447.375596	-416.204067	149.283814	268.968935	-415.524168	79.375383	247.972229	-373.358048	366.579212	128.214781	-359.447136	276.735323	165.219946	-320.400476	248.703841	146.692038	-437.603945	-120.103594	1017.793452	-244.128535	-14.314284	80.203181	-437.591671	-14.138658	80.863055	-37.160781	
752	3.7600	700.336373	1454.267896	-106.656375	713.897801	1457.038389	-435.056331	650.005430	1546.205779	-278.626777	659.612098	1368.415208	-268.445371	623.239824	1188.555543	6.943004	760.862178	942.149702	-51.783624	645.667216	1192.084200	-536.749628	746.936497	927.333340	-436.118358	128.259833	1250.465665	-278.109808	321.038091	1257.183712	-450.752353	286.643688	1308.296534	-93.184420	333.031419	1191.874383	-397.357088	326.290681	1237.248539	-130.126863	153.300793	1305.229540	-240.908924	163.277080	1295.616096	-323.993121	247.653165	1215.772448	-64.681412	239.369054	1128.991366	-452.017171	367.828366	1121.305911	-30.200190	453.836028	1097.668446	-24.998847	515.839555	1037.928876	-17.453505	471.372539	1124.545455	-44.331310	604.994593	940.479904	-27.036719	617.778072	913.246785	-154.228814	482.866697	831.266330	-12.964491	428.769220	762.956932	-33.669038	347.277614	730.599096	-40.320356	449.450617	741.504584	-57.234583	238.366862	656.993764	-65.926947	164.289050	661.576743	-107.415364	381.345585	440.631360	-129.467535	290.916737	509.711806	-52.261458	312.768657	506.923318	-165.600518	265.476791	980.355926	-464.853103	302.438948	901.740961	-465.610053	338.227578	908.949437	-465.087634	296.430370	813.929091	-451.627789	340.540133	694.350701	-428.341335	340.665725	680.951241	-308.399088	261.393145	543.485117	-454.214307	251.919103	459.950774	-438.061391	199.233357	386.835269	-432.920336	283.890225	449.789272	-417.809218	143.174706	272.544112	-416.415908	73.187956	254.178565	-374.215233	356.141611	125.327504	-359.232700	267.504165	165.075497	-320.493711	239.077179	147.028571	-437.770514	-120.324698	1017.818959	-244.082253	-14.341485	80.245198	-437.598354	-14.181371	80.885606	-37.160908	
753	3.7650	698.092072	1456.761055	-103.600979	714.670531	1459.690741	-431.090155	648.804537	1548.915188	-275.202636	658.455376	1371.021537	-265.701996	621.430085	1189.914752	6.670916	760.874153	943.786813	-52.258247	649.802094	1194.857270	-535.213977	747.806143	926.354706	-432.591560	128.193488	1252.687681	-280.025698	321.800831	1260.377070	-451.128684	284.077575	1310.861497	-93.730150	333.205376	1194.385969	-397.468187	324.828242	1240.124881	-130.299391	151.954177	1308.444672	-244.774366	162.429585	1299.189274	-326.132913	246.227265	1218.848244	-65.591572	239.937307	1131.588571	-452.592216	367.386864	1125.237314	-31.327787	453.524319	1101.869374	-26.127199	515.706875	1042.367188	-19.182925	470.929873	1129.029399	-45.311239	606.817067	947.082601	-29.868788	620.878791	919.996895	-157.137577	487.561131	835.208423	-14.913817	434.927164	766.198099	-34.254618	353.870543	731.813152	-40.687827	456.105047	744.819925	-58.037427	246.193790	655.347820	-66.053537	171.888850	658.564217	-106.633508	392.817090	441.971177	-129.753037	301.093004	509.168226	-52.379207	322.581463	507.137334	-165.785187	265.887533	982.879551	-465.448096	302.347497	904.295338	-466.872346	338.180377	911.352575	-466.145330	295.947412	816.477961	-453.150483	339.809144	696.678621	-430.569645	339.084292	683.300772	-309.702068	258.330563	546.940494	-455.727493	247.973534	463.425502	-439.695636	194.231227	391.214213	-434.756983	279.858245	452.911093	-419.494625	137.645075	277.026327	-417.077255	67.739611	261.527873	-374.876940	345.597698	122.838595	-358.956819	258.382733	165.383443	-320.645455	229.616966	148.186839	-437.860074	-120.519741	1017.788543	-244.108398	-14.370729	80.266786	-437.585953	-14.211129	80.909164	-37.160182	
754	3.7700	695.955805	1459.204961	-100.490333	715.437279	1462.296529	-427.084150	647.761088	1551.544961	-271.800266	657.314823	1373.525464	-262.784249	619.628337	1191.133709	5.976507	760.878232	945.682761	-52.969654	653.753550	1197.463627	-533.344616	748.913469	926.683985	-433.180032	128.373999	1254.968999	-281.537170	321.872830	1263.705947	-451.486616	281.590741	1313.822407	-94.125555	333.076243	1197.352194	-397.855137	323.055553	1244.061519	-131.083930	150.955508	1310.822118	-244.961865	162.494645	1300.380217	-329.217048	244.710575	1222.274485	-66.425851	240.111237	1134.229995	-453.257663	366.664048	1128.978483	-32.383259	452.783827	1105.671515	-27.331727	515.157791	1046.332441	-21.057972	470.192221	1133.087630	-46.282447	608.241655	953.449048	-33.364832	623.388484	926.656088	-161.281277	491.832981	838.501460	-17.091341	440.462241	768.191475	-35.880845	360.234054	732.061389	-41.243319	461.948375	747.163604	-59.676475	253.635577	652.775004	-65.842080	179.197477	654.534861	-106.437356	404.426361	442.634845	-130.418886	311.282010	507.956709	-52.477089	332.836418	506.716482	-165.610797	266.560457	985.949516	-466.339124	302.915411	907.344354	-468.039311	338.784773	914.341660	-467.147084	296.460175	819.441178	-454.793325	340.448833	699.333591	-432.481404	339.519827	686.152504	-311.208368	256.342832	550.667141	-456.711789	244.950392	467.555640	-441.316386	190.205993	396.121880	-435.860155	276.785185	456.637649	-421.152879	132.738627	282.496517	-417.687671	62.976064	269.971923	-375.493438	335.068672	120.828220	-358.503197	249.588082	166.475068	-320.739979	220.517677	150.583053	-438.022108	-120.686048	1017.857100	-243.887169	-14.388463	80.373725	-437.511825	-14.223402	80.940250	-37.125294	
755	3.7750	693.993647	1461.723478	-97.533125	716.159615	1464.744412	-423.055413	646.908341	1553.983766	-268.466898	656.003569	1375.884327	-259.966284	617.577073	1192.536373	5.625833	760.821007	947.544798	-53.239146	657.615010	1199.848152	-531.071688	749.888763	926.941141	-433.530791	127.281954	1258.269286	-282.055065	321.370930	1267.212889	-451.802188	279.158269	1317.243798	-94.140670	332.684580	1200.720061	-398.347745	321.325833	1247.384044	-131.191711	149.776954	1313.962476	-245.528899	162.004307	1304.001551	-329.233321	243.224776	1226.026249	-67.139791	240.028239	1137.067617	-454.013061	365.657971	1132.399641	-33.525319	451.746812	1108.930577	-28.707183	514.043014	1049.590402	-23.139021	469.197809	1136.682429	-47.166497	609.008474	959.113917	-36.309474	624.867995	932.666257	-164.771445	495.626046	840.979860	-19.221886	445.542498	769.460355	-37.539432	366.374362	731.428231	-41.648135	467.238733	748.886603	-61.560085	260.715768	649.348065	-65.724287	185.697440	649.714373	-105.441219	415.193331	442.858538	-130.603093	321.046266	506.015619	-52.608850	342.629130	505.474293	-165.618749	267.689143	989.298533	-466.799142	304.264795	910.886426	-469.220137	340.070982	918.043367	-468.026528	297.993983	822.873689	-456.476068	342.316990	702.399735	-434.301759	341.509712	689.379228	-313.036981	255.372216	555.225696	-458.284057	242.914858	472.263763	-442.813951	187.197473	401.564545	-436.866169	274.714029	460.924269	-422.775048	128.690870	288.935251	-418.477483	59.079991	279.392438	-376.059909	324.246516	118.225382	-356.442449	241.113343	168.317083	-321.039195	211.630507	153.491796	-438.076219	-120.768814	1017.898943	-243.726037	-14.405356	80.385574	-437.550999	-14.211960	81.004054	-37.135204	
756	3.7800	692.333550	1463.848321	-94.669577	716.907266	1466.964915	-419.006251	646.271764	1556.188549	-265.276302	654.819087	1378.044930	-257.072243	615.449813	1193.975775	5.243200	760.630739	949.503130	-53.424737	661.378709	1202.014532	-528.376207	750.755147	927.453418	-433.647172	126.529484	1261.424279	-282.953012	320.438417	1270.789119	-452.061137	276.889876	1320.957128	-94.021518	332.296459	1204.656591	-399.052174	319.725117	1251.148292	-131.572206	148.647066	1317.533520	-246.422383	161.274070	1307.174528	-329.655972	241.857930	1230.043338	-67.751036	239.704155	1140.042219	-454.672162	364.367061	1135.401131	-34.760220	450.368551	1111.689656	-30.268529	512.659767	1052.368247	-25.284430	467.931274	1139.808490	-48.033328	609.562475	964.137303	-38.792398	625.263432	938.729167	-168.166706	498.703455	842.426722	-21.875324	450.081447	769.797530	-39.190777	371.366643	730.051117	-42.624860	472.175538	749.915478	-62.311721	267.248457	645.188347	-65.472103	191.586653	643.873989	-104.789610	426.215147	442.767290	-130.861760	330.652551	503.621199	-52.590622	352.027739	503.658048	-165.801811	268.934813	993.227886	-468.064465	306.285053	914.912931	-470.315256	342.119440	922.311648	-468.892303	300.586329	826.740825	-458.324159	345.169407	706.024501	-436.620004	344.415523	692.712784	-315.427189	255.420677	560.302103	-459.875940	241.949940	477.512410	-444.398184	185.196411	407.735206	-438.001580	273.719633	465.736421	-424.571065	125.532975	296.091731	-419.023951	56.453365	289.908207	-376.276556	313.770342	116.834917	-356.045688	232.998996	170.413520	-321.011617	202.814174	156.851191	-437.760275	-120.796473	1018.015686	-243.493178	-14.433890	80.574052	-437.525320	-14.214639	81.055336	-37.158103	
